<?xml version="1.0" encoding="UTF-8"?>
<svg xmlns="http://www.w3.org/2000/svg" xmlns:xlink="http://www.w3.org/1999/xlink" width="24px" height="24px" viewBox="0 0 24 24" version="1.1">
<g id="surface1">
<path style=" stroke:none;fill-rule:nonzero;fill:rgb(0%,0%,0%);fill-opacity:1;" d="M 21.855469 9.855469 L 14.570312 9.855469 C 14.335938 9.855469 14.144531 9.664062 14.144531 9.429688 L 14.144531 2.144531 C 14.144531 0.960938 13.183594 0 12 0 C 10.816406 0 9.855469 0.960938 9.855469 2.144531 L 9.855469 9.429688 C 9.855469 9.664062 9.664062 9.855469 9.429688 9.855469 L 2.144531 9.855469 C 0.960938 9.855469 0 10.816406 0 12 C 0 13.183594 0.960938 14.144531 2.144531 14.144531 L 9.429688 14.144531 C 9.664062 14.144531 9.855469 14.335938 9.855469 14.570312 L 9.855469 21.855469 C 9.855469 23.039062 10.816406 24 12 24 C 13.183594 24 14.144531 23.039062 14.144531 21.855469 L 14.144531 14.570312 C 14.144531 14.335938 14.335938 14.144531 14.570312 14.144531 L 21.855469 14.144531 C 23.039062 14.144531 24 13.183594 24 12 C 24 10.816406 23.039062 9.855469 21.855469 9.855469 Z M 21.855469 9.855469 "/>
</g>
</svg>
