<?xml version="1.0" encoding="UTF-8"?>
<svg xmlns="http://www.w3.org/2000/svg" xmlns:xlink="http://www.w3.org/1999/xlink" width="24px" height="24px" viewBox="0 0 24 24" version="1.1">
<g id="surface1">
<path style=" stroke:none;fill-rule:evenodd;fill:rgb(0%,0%,0%);fill-opacity:1;" d="M 3.148438 11.570312 C 3.148438 12.121094 3.597656 12.570312 4.148438 12.570312 C 4.6875 12.554688 5.113281 12.117188 5.121094 11.578125 C 5.160156 9.261719 6.535156 7.175781 8.644531 6.21875 C 10.757812 5.265625 13.230469 5.609375 15 7.109375 L 14.679688 7.109375 C 14.128906 7.109375 13.679688 7.558594 13.679688 8.109375 C 13.679688 8.664062 14.128906 9.109375 14.679688 9.109375 L 17.511719 9.109375 C 18.0625 9.109375 18.511719 8.664062 18.511719 8.109375 L 18.511719 5.28125 C 18.511719 4.726562 18.0625 4.28125 17.511719 4.28125 C 16.957031 4.28125 16.511719 4.726562 16.511719 5.28125 L 16.511719 5.71875 C 14.175781 3.613281 10.820312 3.070312 7.941406 4.332031 C 5.058594 5.59375 3.183594 8.425781 3.148438 11.570312 Z M 17.839844 12.28125 C 17.839844 11.726562 18.289062 11.28125 18.839844 11.28125 C 19.382812 11.285156 19.824219 11.726562 19.828125 12.269531 C 19.863281 14.421875 19.019531 16.496094 17.488281 18.011719 C 14.476562 21.007812 9.644531 21.125 6.488281 18.28125 L 6.488281 18.71875 C 6.488281 19.273438 6.042969 19.71875 5.488281 19.71875 C 4.9375 19.71875 4.488281 19.273438 4.488281 18.71875 L 4.488281 15.890625 C 4.488281 15.335938 4.9375 14.890625 5.488281 14.890625 L 8.351562 14.890625 C 8.902344 14.890625 9.351562 15.335938 9.351562 15.890625 C 9.351562 16.441406 8.902344 16.890625 8.351562 16.890625 L 8 16.890625 C 9.789062 18.378906 12.277344 18.699219 14.386719 17.714844 C 16.492188 16.726562 17.839844 14.609375 17.839844 12.28125 Z M 17.839844 12.28125 "/>
</g>
</svg>
